<svg xmlns="http://www.w3.org/2000/svg" viewBox="0 0 512 256" width="512" height="256">
<defs><pattern id="pglovesspectralweave" width="28" height="48" patternUnits="userSpaceOnUse"><rect width="28" height="48" fill="#0b0b16"/><path d="M14 0 L28 8 L28 24 L14 32 L0 24 L0 8 Z" fill="none" stroke="#ff6bd6" stroke-width="1.6" opacity=".85"/><path d="M14 0 L28 8 L28 24 L14 32 L0 24 L0 8 Z" transform="translate(14 24)" fill="#5ce1e6" fill-opacity=".35" stroke="#ff6bd6" stroke-width="1.2" opacity=".7"/><path d="M14 0 L28 8 L28 24 L14 32 L0 24 L0 8 Z" transform="translate(-14 24)" fill="#5ce1e6" fill-opacity=".35" stroke="#ff6bd6" stroke-width="1.2" opacity=".7"/></pattern><clipPath id="cglovesspectralweave"><rect x="176" y="30" width="34" height="70" rx="16" /><rect x="214" y="18" width="34" height="82" rx="16" /><rect x="252" y="22" width="34" height="78" rx="16" /><rect x="290" y="38" width="32" height="64" rx="16" /><rect x="172" y="70" width="152" height="112" rx="26" /><polygon points="320,108 372,84 392,100 384,120 336,160" /><rect x="166" y="170" width="166" height="64" rx="14" /></clipPath>
<linearGradient id="hglovesspectralweave" x1="0" y1="0" x2="0" y2="1"><stop offset="0" stop-color="#fff" stop-opacity=".38"/><stop offset=".35" stop-color="#fff" stop-opacity=".06"/><stop offset=".7" stop-color="#000" stop-opacity="0"/><stop offset="1" stop-color="#000" stop-opacity=".35"/></linearGradient>
<radialGradient id="sglovesspectralweave" cx=".5" cy=".5" r=".5"><stop offset="0" stop-color="#000" stop-opacity=".45"/><stop offset="1" stop-color="#000" stop-opacity="0"/></radialGradient></defs>
<ellipse cx="256" cy="232" rx="210" ry="14" fill="url(#sglovesspectralweave)"/>
<g clip-path="url(#cglovesspectralweave)"><rect width="512" height="256" fill="url(#pglovesspectralweave)"/><rect width="512" height="256" fill="url(#hglovesspectralweave)"/></g>
<rect x="176" y="30" width="34" height="70" rx="16" fill="none" stroke="#05060a" stroke-opacity=".65" stroke-width="2.5" stroke-linejoin="round"/><rect x="214" y="18" width="34" height="82" rx="16" fill="none" stroke="#05060a" stroke-opacity=".65" stroke-width="2.5" stroke-linejoin="round"/><rect x="252" y="22" width="34" height="78" rx="16" fill="none" stroke="#05060a" stroke-opacity=".65" stroke-width="2.5" stroke-linejoin="round"/><rect x="290" y="38" width="32" height="64" rx="16" fill="none" stroke="#05060a" stroke-opacity=".65" stroke-width="2.5" stroke-linejoin="round"/><rect x="172" y="70" width="152" height="112" rx="26" fill="none" stroke="#05060a" stroke-opacity=".65" stroke-width="2.5" stroke-linejoin="round"/><polygon points="320,108 372,84 392,100 384,120 336,160" fill="none" stroke="#05060a" stroke-opacity=".65" stroke-width="2.5" stroke-linejoin="round"/><rect x="166" y="170" width="166" height="64" rx="14" fill="none" stroke="#05060a" stroke-opacity=".65" stroke-width="2.5" stroke-linejoin="round"/>
</svg>