<svg xmlns="http://www.w3.org/2000/svg" viewBox="0 0 512 256" width="512" height="256">
<defs><pattern id="pplaceholder" width="12" height="12" patternUnits="userSpaceOnUse"><rect width="12" height="12" fill="#16191e"/><rect width="6" height="6" fill="#3a404b" opacity=".8"/><rect x="6" y="6" width="6" height="6" fill="#3a404b" opacity=".8"/></pattern><linearGradient id="pplaceholderg" x1="0" x2="1"><stop offset="0" stop-color="#9aa4b2" stop-opacity="0"/><stop offset=".5" stop-color="#9aa4b2" stop-opacity=".55"/><stop offset="1" stop-color="#9aa4b2" stop-opacity="0"/></linearGradient><clipPath id="cplaceholder"><path d="M10 116 L104 98 L112 98 L112 136 L98 140 L34 166 Q18 170 12 160 Z" fill-rule="evenodd" clip-rule="evenodd" /><polygon points="108,96 272,96 278,102 278,134 108,136" /><polygon points="118,88 264,88 270,96 112,96" /><polygon points="150,134 180,134 172,184 146,190 142,172" /><path d="M182 134 L214 134 L212 148 Q198 154 186 148 Z" fill-rule="evenodd" clip-rule="evenodd" /><path d="M224 134 L254 134 Q262 160 282 192 L256 206 Q236 172 224 134 Z" fill-rule="evenodd" clip-rule="evenodd" /><polygon points="278,108 372,108 372,134 278,134" /><polygon points="278,98 376,98 376,108 278,108" /><polygon points="372,111 478,111 478,119 372,119" /><polygon points="452,94 462,94 466,111 450,111" /><rect x="476" y="106" width="20" height="18" rx="3" /></clipPath>
<linearGradient id="hplaceholder" x1="0" y1="0" x2="0" y2="1"><stop offset="0" stop-color="#fff" stop-opacity=".38"/><stop offset=".35" stop-color="#fff" stop-opacity=".06"/><stop offset=".7" stop-color="#000" stop-opacity="0"/><stop offset="1" stop-color="#000" stop-opacity=".35"/></linearGradient>
<radialGradient id="splaceholder" cx=".5" cy=".5" r=".5"><stop offset="0" stop-color="#000" stop-opacity=".45"/><stop offset="1" stop-color="#000" stop-opacity="0"/></radialGradient></defs>
<ellipse cx="256" cy="232" rx="210" ry="14" fill="url(#splaceholder)"/>
<g clip-path="url(#cplaceholder)"><rect width="512" height="256" fill="url(#pplaceholder)"/><rect y="104" width="512" height="26" fill="url(#pplaceholderg)"/><rect width="512" height="256" fill="url(#hplaceholder)"/></g>
<path d="M10 116 L104 98 L112 98 L112 136 L98 140 L34 166 Q18 170 12 160 Z" fill-rule="evenodd" clip-rule="evenodd" fill="none" stroke="#05060a" stroke-opacity=".65" stroke-width="2.5" stroke-linejoin="round"/><polygon points="108,96 272,96 278,102 278,134 108,136" fill="none" stroke="#05060a" stroke-opacity=".65" stroke-width="2.5" stroke-linejoin="round"/><polygon points="118,88 264,88 270,96 112,96" fill="none" stroke="#05060a" stroke-opacity=".65" stroke-width="2.5" stroke-linejoin="round"/><polygon points="150,134 180,134 172,184 146,190 142,172" fill="none" stroke="#05060a" stroke-opacity=".65" stroke-width="2.5" stroke-linejoin="round"/><path d="M182 134 L214 134 L212 148 Q198 154 186 148 Z" fill-rule="evenodd" clip-rule="evenodd" fill="none" stroke="#05060a" stroke-opacity=".65" stroke-width="2.5" stroke-linejoin="round"/><path d="M224 134 L254 134 Q262 160 282 192 L256 206 Q236 172 224 134 Z" fill-rule="evenodd" clip-rule="evenodd" fill="none" stroke="#05060a" stroke-opacity=".65" stroke-width="2.5" stroke-linejoin="round"/><polygon points="278,108 372,108 372,134 278,134" fill="none" stroke="#05060a" stroke-opacity=".65" stroke-width="2.5" stroke-linejoin="round"/><polygon points="278,98 376,98 376,108 278,108" fill="none" stroke="#05060a" stroke-opacity=".65" stroke-width="2.5" stroke-linejoin="round"/><polygon points="372,111 478,111 478,119 372,119" fill="none" stroke="#05060a" stroke-opacity=".65" stroke-width="2.5" stroke-linejoin="round"/><polygon points="452,94 462,94 466,111 450,111" fill="none" stroke="#05060a" stroke-opacity=".65" stroke-width="2.5" stroke-linejoin="round"/><rect x="476" y="106" width="20" height="18" rx="3" fill="none" stroke="#05060a" stroke-opacity=".65" stroke-width="2.5" stroke-linejoin="round"/>
</svg>