<svg xmlns="http://www.w3.org/2000/svg" viewBox="0 0 512 256" width="512" height="256">
<defs><clipPath id="criflearcticvector"><polygon points="18,118 92,104 100,104 100,150 70,170 20,168 14,150" /><polygon points="96,96 300,96 312,108 312,140 96,140" /><polygon points="300,104 400,104 404,134 300,134" /><polygon points="400,112 492,112 492,124 400,124" /><polygon points="380,88 392,88 392,104 380,104" /><polygon points="150,80 250,80 256,96 144,96" /><polygon points="222,138 256,138 270,204 240,212" /><polygon points="150,138 182,138 172,192 146,190" /></clipPath>
<linearGradient id="hriflearcticvector" x1="0" y1="0" x2="0" y2="1"><stop offset="0" stop-color="#fff" stop-opacity=".38"/><stop offset=".35" stop-color="#fff" stop-opacity=".06"/><stop offset=".7" stop-color="#000" stop-opacity="0"/><stop offset="1" stop-color="#000" stop-opacity=".35"/></linearGradient>
<radialGradient id="sriflearcticvector" cx=".5" cy=".5" r=".5"><stop offset="0" stop-color="#000" stop-opacity=".45"/><stop offset="1" stop-color="#000" stop-opacity="0"/></radialGradient></defs>
<ellipse cx="256" cy="232" rx="210" ry="14" fill="url(#sriflearcticvector)"/>
<g clip-path="url(#criflearcticvector)"><rect width="512" height="256" fill="#9fb7c9"/><polygon points="168,187 204,188 181,223" fill="#e8f1f7" opacity="0.86"/><polygon points="301,252 348,249 292,299" fill="#9fb7c9" opacity="0.82"/><polygon points="90,87 115,79 86,112" fill="#3d5466" opacity="0.86"/><polygon points="286,202 344,224 307,260" fill="#e8f1f7" opacity="0.85"/><polygon points="485,156 549,148 493,220" fill="#9fb7c9" opacity="0.79"/><polygon points="86,80 116,73 83,111" fill="#3d5466" opacity="0.66"/><polygon points="155,224 215,217 181,284" fill="#e8f1f7" opacity="0.65"/><polygon points="280,8 337,9 265,64" fill="#9fb7c9" opacity="0.87"/><polygon points="214,255 285,263 261,326" fill="#3d5466" opacity="0.91"/><polygon points="268,100 314,99 270,146" fill="#e8f1f7" opacity="0.81"/><polygon points="302,115 357,97 339,170" fill="#9fb7c9" opacity="0.64"/><polygon points="350,213 381,221 359,244" fill="#3d5466" opacity="0.88"/><polygon points="470,183 512,175 492,225" fill="#e8f1f7" opacity="0.89"/><polygon points="67,199 99,210 89,231" fill="#9fb7c9" opacity="0.90"/><polygon points="329,184 388,165 322,243" fill="#3d5466" opacity="0.80"/><polygon points="398,139 464,137 443,205" fill="#e8f1f7" opacity="0.88"/><polygon points="327,7 389,11 347,69" fill="#9fb7c9" opacity="0.58"/><polygon points="268,228 323,251 269,284" fill="#3d5466" opacity="0.58"/><polygon points="430,78 462,73 443,110" fill="#e8f1f7" opacity="0.81"/><polygon points="14,184 71,181 21,241" fill="#9fb7c9" opacity="0.60"/><polygon points="412,6 480,15 396,74" fill="#3d5466" opacity="0.85"/><polygon points="123,152 192,172 170,221" fill="#e8f1f7" opacity="0.94"/><polygon points="48,7 85,8 49,44" fill="#9fb7c9" opacity="0.88"/><polygon points="342,89 420,97 332,167" fill="#3d5466" opacity="0.65"/><polygon points="233,117 270,117 229,154" fill="#e8f1f7" opacity="0.98"/><polygon points="107,18 171,-8 122,82" fill="#9fb7c9" opacity="0.69"/><polygon points="98,86 175,118 82,163" fill="#3d5466" opacity="0.87"/><polygon points="203,61 233,47 200,91" fill="#e8f1f7" opacity="0.59"/><polygon points="457,139 528,165 495,210" fill="#9fb7c9" opacity="0.70"/><polygon points="493,128 516,138 491,150" fill="#3d5466" opacity="0.70"/><polygon points="8,132 32,131 17,157" fill="#e8f1f7" opacity="0.71"/><polygon points="239,17 304,-15 254,82" fill="#9fb7c9" opacity="0.92"/><polygon points="468,62 539,69 469,133" fill="#3d5466" opacity="0.92"/><polygon points="463,75 520,53 470,132" fill="#e8f1f7" opacity="0.59"/><polygon points="372,121 420,123 360,169" fill="#9fb7c9" opacity="0.89"/><polygon points="437,190 458,194 441,211" fill="#3d5466" opacity="0.63"/><polygon points="308,104 330,96 323,126" fill="#e8f1f7" opacity="0.62"/><polygon points="82,40 136,33 75,94" fill="#9fb7c9" opacity="0.77"/><polygon points="390,68 421,78 404,99" fill="#3d5466" opacity="0.71"/><polygon points="100,237 132,227 101,269" fill="#e8f1f7" opacity="0.84"/><rect width="512" height="256" fill="url(#hriflearcticvector)"/></g>
<polygon points="18,118 92,104 100,104 100,150 70,170 20,168 14,150" fill="none" stroke="#05060a" stroke-opacity=".65" stroke-width="2.5" stroke-linejoin="round"/><polygon points="96,96 300,96 312,108 312,140 96,140" fill="none" stroke="#05060a" stroke-opacity=".65" stroke-width="2.5" stroke-linejoin="round"/><polygon points="300,104 400,104 404,134 300,134" fill="none" stroke="#05060a" stroke-opacity=".65" stroke-width="2.5" stroke-linejoin="round"/><polygon points="400,112 492,112 492,124 400,124" fill="none" stroke="#05060a" stroke-opacity=".65" stroke-width="2.5" stroke-linejoin="round"/><polygon points="380,88 392,88 392,104 380,104" fill="none" stroke="#05060a" stroke-opacity=".65" stroke-width="2.5" stroke-linejoin="round"/><polygon points="150,80 250,80 256,96 144,96" fill="none" stroke="#05060a" stroke-opacity=".65" stroke-width="2.5" stroke-linejoin="round"/><polygon points="222,138 256,138 270,204 240,212" fill="none" stroke="#05060a" stroke-opacity=".65" stroke-width="2.5" stroke-linejoin="round"/><polygon points="150,138 182,138 172,192 146,190" fill="none" stroke="#05060a" stroke-opacity=".65" stroke-width="2.5" stroke-linejoin="round"/>
</svg>