<svg xmlns="http://www.w3.org/2000/svg" viewBox="0 0 512 256" width="512" height="256">
<defs><clipPath id="criflearcticvector"><path d="M16 108 L94 102 L100 102 L100 142 L70 152 L22 152 Q14 150 14 140 Z" fill-rule="evenodd" clip-rule="evenodd" /><polygon points="96,111 130,111 130,127 96,127" /><polygon points="126,98 278,98 286,108 286,138 126,138" /><polygon points="130,89 274,89 274,98 130,98" /><polygon points="134,78 152,78 154,89 132,89" /><polygon points="150,136 178,136 170,188 144,186" /><path d="M214 136 L244 136 L252 196 Q238 202 224 200 Z" fill-rule="evenodd" clip-rule="evenodd" /><polygon points="286,101 398,101 398,135 286,135" /><polygon points="378,82 390,82 394,101 374,101" /><polygon points="398,112 468,112 468,121 398,121" /><rect x="466" y="107" width="26" height="19" rx="4" /></clipPath>
<linearGradient id="hriflearcticvector" x1="0" y1="0" x2="0" y2="1"><stop offset="0" stop-color="#fff" stop-opacity=".38"/><stop offset=".35" stop-color="#fff" stop-opacity=".06"/><stop offset=".7" stop-color="#000" stop-opacity="0"/><stop offset="1" stop-color="#000" stop-opacity=".35"/></linearGradient>
<radialGradient id="sriflearcticvector" cx=".5" cy=".5" r=".5"><stop offset="0" stop-color="#000" stop-opacity=".45"/><stop offset="1" stop-color="#000" stop-opacity="0"/></radialGradient></defs>
<ellipse cx="256" cy="232" rx="210" ry="14" fill="url(#sriflearcticvector)"/>
<g clip-path="url(#criflearcticvector)"><rect width="512" height="256" fill="#9fb7c9"/><polygon points="168,187 204,188 181,223" fill="#e8f1f7" opacity="0.86"/><polygon points="301,252 348,249 292,299" fill="#9fb7c9" opacity="0.82"/><polygon points="90,87 115,79 86,112" fill="#3d5466" opacity="0.86"/><polygon points="286,202 344,224 307,260" fill="#e8f1f7" opacity="0.85"/><polygon points="485,156 549,148 493,220" fill="#9fb7c9" opacity="0.79"/><polygon points="86,80 116,73 83,111" fill="#3d5466" opacity="0.66"/><polygon points="155,224 215,217 181,284" fill="#e8f1f7" opacity="0.65"/><polygon points="280,8 337,9 265,64" fill="#9fb7c9" opacity="0.87"/><polygon points="214,255 285,263 261,326" fill="#3d5466" opacity="0.91"/><polygon points="268,100 314,99 270,146" fill="#e8f1f7" opacity="0.81"/><polygon points="302,115 357,97 339,170" fill="#9fb7c9" opacity="0.64"/><polygon points="350,213 381,221 359,244" fill="#3d5466" opacity="0.88"/><polygon points="470,183 512,175 492,225" fill="#e8f1f7" opacity="0.89"/><polygon points="67,199 99,210 89,231" fill="#9fb7c9" opacity="0.90"/><polygon points="329,184 388,165 322,243" fill="#3d5466" opacity="0.80"/><polygon points="398,139 464,137 443,205" fill="#e8f1f7" opacity="0.88"/><polygon points="327,7 389,11 347,69" fill="#9fb7c9" opacity="0.58"/><polygon points="268,228 323,251 269,284" fill="#3d5466" opacity="0.58"/><polygon points="430,78 462,73 443,110" fill="#e8f1f7" opacity="0.81"/><polygon points="14,184 71,181 21,241" fill="#9fb7c9" opacity="0.60"/><polygon points="412,6 480,15 396,74" fill="#3d5466" opacity="0.85"/><polygon points="123,152 192,172 170,221" fill="#e8f1f7" opacity="0.94"/><polygon points="48,7 85,8 49,44" fill="#9fb7c9" opacity="0.88"/><polygon points="342,89 420,97 332,167" fill="#3d5466" opacity="0.65"/><polygon points="233,117 270,117 229,154" fill="#e8f1f7" opacity="0.98"/><polygon points="107,18 171,-8 122,82" fill="#9fb7c9" opacity="0.69"/><polygon points="98,86 175,118 82,163" fill="#3d5466" opacity="0.87"/><polygon points="203,61 233,47 200,91" fill="#e8f1f7" opacity="0.59"/><polygon points="457,139 528,165 495,210" fill="#9fb7c9" opacity="0.70"/><polygon points="493,128 516,138 491,150" fill="#3d5466" opacity="0.70"/><polygon points="8,132 32,131 17,157" fill="#e8f1f7" opacity="0.71"/><polygon points="239,17 304,-15 254,82" fill="#9fb7c9" opacity="0.92"/><polygon points="468,62 539,69 469,133" fill="#3d5466" opacity="0.92"/><polygon points="463,75 520,53 470,132" fill="#e8f1f7" opacity="0.59"/><polygon points="372,121 420,123 360,169" fill="#9fb7c9" opacity="0.89"/><polygon points="437,190 458,194 441,211" fill="#3d5466" opacity="0.63"/><polygon points="308,104 330,96 323,126" fill="#e8f1f7" opacity="0.62"/><polygon points="82,40 136,33 75,94" fill="#9fb7c9" opacity="0.77"/><polygon points="390,68 421,78 404,99" fill="#3d5466" opacity="0.71"/><polygon points="100,237 132,227 101,269" fill="#e8f1f7" opacity="0.84"/><rect width="512" height="256" fill="url(#hriflearcticvector)"/></g>
<path d="M16 108 L94 102 L100 102 L100 142 L70 152 L22 152 Q14 150 14 140 Z" fill-rule="evenodd" clip-rule="evenodd" fill="none" stroke="#05060a" stroke-opacity=".65" stroke-width="2.5" stroke-linejoin="round"/><polygon points="96,111 130,111 130,127 96,127" fill="none" stroke="#05060a" stroke-opacity=".65" stroke-width="2.5" stroke-linejoin="round"/><polygon points="126,98 278,98 286,108 286,138 126,138" fill="none" stroke="#05060a" stroke-opacity=".65" stroke-width="2.5" stroke-linejoin="round"/><polygon points="130,89 274,89 274,98 130,98" fill="none" stroke="#05060a" stroke-opacity=".65" stroke-width="2.5" stroke-linejoin="round"/><polygon points="134,78 152,78 154,89 132,89" fill="none" stroke="#05060a" stroke-opacity=".65" stroke-width="2.5" stroke-linejoin="round"/><polygon points="150,136 178,136 170,188 144,186" fill="none" stroke="#05060a" stroke-opacity=".65" stroke-width="2.5" stroke-linejoin="round"/><path d="M214 136 L244 136 L252 196 Q238 202 224 200 Z" fill-rule="evenodd" clip-rule="evenodd" fill="none" stroke="#05060a" stroke-opacity=".65" stroke-width="2.5" stroke-linejoin="round"/><polygon points="286,101 398,101 398,135 286,135" fill="none" stroke="#05060a" stroke-opacity=".65" stroke-width="2.5" stroke-linejoin="round"/><polygon points="378,82 390,82 394,101 374,101" fill="none" stroke="#05060a" stroke-opacity=".65" stroke-width="2.5" stroke-linejoin="round"/><polygon points="398,112 468,112 468,121 398,121" fill="none" stroke="#05060a" stroke-opacity=".65" stroke-width="2.5" stroke-linejoin="round"/><rect x="466" y="107" width="26" height="19" rx="4" fill="none" stroke="#05060a" stroke-opacity=".65" stroke-width="2.5" stroke-linejoin="round"/>
</svg>