<svg xmlns="http://www.w3.org/2000/svg" viewBox="0 0 512 256" width="512" height="256">
<defs><pattern id="priflephantomgrid" width="28" height="48" patternUnits="userSpaceOnUse"><rect width="28" height="48" fill="#0d0818"/><path d="M14 0 L28 8 L28 24 L14 32 L0 24 L0 8 Z" fill="none" stroke="#b07cff" stroke-width="1.6" opacity=".85"/><path d="M14 0 L28 8 L28 24 L14 32 L0 24 L0 8 Z" transform="translate(14 24)" fill="#4b2a8f" fill-opacity=".35" stroke="#b07cff" stroke-width="1.2" opacity=".7"/><path d="M14 0 L28 8 L28 24 L14 32 L0 24 L0 8 Z" transform="translate(-14 24)" fill="#4b2a8f" fill-opacity=".35" stroke="#b07cff" stroke-width="1.2" opacity=".7"/></pattern><clipPath id="criflephantomgrid"><path d="M16 108 L94 102 L100 102 L100 142 L70 152 L22 152 Q14 150 14 140 Z" fill-rule="evenodd" clip-rule="evenodd" /><polygon points="96,111 130,111 130,127 96,127" /><polygon points="126,98 278,98 286,108 286,138 126,138" /><polygon points="130,89 274,89 274,98 130,98" /><polygon points="134,78 152,78 154,89 132,89" /><polygon points="150,136 178,136 170,188 144,186" /><path d="M214 136 L244 136 L252 196 Q238 202 224 200 Z" fill-rule="evenodd" clip-rule="evenodd" /><polygon points="286,101 398,101 398,135 286,135" /><polygon points="378,82 390,82 394,101 374,101" /><polygon points="398,112 468,112 468,121 398,121" /><rect x="466" y="107" width="26" height="19" rx="4" /></clipPath>
<linearGradient id="hriflephantomgrid" x1="0" y1="0" x2="0" y2="1"><stop offset="0" stop-color="#fff" stop-opacity=".38"/><stop offset=".35" stop-color="#fff" stop-opacity=".06"/><stop offset=".7" stop-color="#000" stop-opacity="0"/><stop offset="1" stop-color="#000" stop-opacity=".35"/></linearGradient>
<radialGradient id="sriflephantomgrid" cx=".5" cy=".5" r=".5"><stop offset="0" stop-color="#000" stop-opacity=".45"/><stop offset="1" stop-color="#000" stop-opacity="0"/></radialGradient></defs>
<ellipse cx="256" cy="232" rx="210" ry="14" fill="url(#sriflephantomgrid)"/>
<g clip-path="url(#criflephantomgrid)"><rect width="512" height="256" fill="url(#priflephantomgrid)"/><rect width="512" height="256" fill="url(#hriflephantomgrid)"/></g>
<path d="M16 108 L94 102 L100 102 L100 142 L70 152 L22 152 Q14 150 14 140 Z" fill-rule="evenodd" clip-rule="evenodd" fill="none" stroke="#05060a" stroke-opacity=".65" stroke-width="2.5" stroke-linejoin="round"/><polygon points="96,111 130,111 130,127 96,127" fill="none" stroke="#05060a" stroke-opacity=".65" stroke-width="2.5" stroke-linejoin="round"/><polygon points="126,98 278,98 286,108 286,138 126,138" fill="none" stroke="#05060a" stroke-opacity=".65" stroke-width="2.5" stroke-linejoin="round"/><polygon points="130,89 274,89 274,98 130,98" fill="none" stroke="#05060a" stroke-opacity=".65" stroke-width="2.5" stroke-linejoin="round"/><polygon points="134,78 152,78 154,89 132,89" fill="none" stroke="#05060a" stroke-opacity=".65" stroke-width="2.5" stroke-linejoin="round"/><polygon points="150,136 178,136 170,188 144,186" fill="none" stroke="#05060a" stroke-opacity=".65" stroke-width="2.5" stroke-linejoin="round"/><path d="M214 136 L244 136 L252 196 Q238 202 224 200 Z" fill-rule="evenodd" clip-rule="evenodd" fill="none" stroke="#05060a" stroke-opacity=".65" stroke-width="2.5" stroke-linejoin="round"/><polygon points="286,101 398,101 398,135 286,135" fill="none" stroke="#05060a" stroke-opacity=".65" stroke-width="2.5" stroke-linejoin="round"/><polygon points="378,82 390,82 394,101 374,101" fill="none" stroke="#05060a" stroke-opacity=".65" stroke-width="2.5" stroke-linejoin="round"/><polygon points="398,112 468,112 468,121 398,121" fill="none" stroke="#05060a" stroke-opacity=".65" stroke-width="2.5" stroke-linejoin="round"/><rect x="466" y="107" width="26" height="19" rx="4" fill="none" stroke="#05060a" stroke-opacity=".65" stroke-width="2.5" stroke-linejoin="round"/>
</svg>