<svg xmlns="http://www.w3.org/2000/svg" viewBox="0 0 512 256" width="512" height="256">
<defs><linearGradient id="pshotgunlaserfade" x1="0" y1="0" x2="1" y2="0.3"><stop offset="0" stop-color="#120d22"/><stop offset=".45" stop-color="#5b6bff"/><stop offset="1" stop-color="#ff6bd6"/></linearGradient><clipPath id="cshotgunlaserfade"><polygon points="16,116 110,104 116,104 116,146 80,166 22,166 12,150" /><polygon points="112,100 260,100 266,140 112,140" /><polygon points="260,104 488,104 488,120 260,120" /><rect x="300" y="122" width="140" height="20" rx="6" /><polygon points="140,138 172,138 162,188 136,186" /></clipPath>
<linearGradient id="hshotgunlaserfade" x1="0" y1="0" x2="0" y2="1"><stop offset="0" stop-color="#fff" stop-opacity=".38"/><stop offset=".35" stop-color="#fff" stop-opacity=".06"/><stop offset=".7" stop-color="#000" stop-opacity="0"/><stop offset="1" stop-color="#000" stop-opacity=".35"/></linearGradient>
<radialGradient id="sshotgunlaserfade" cx=".5" cy=".5" r=".5"><stop offset="0" stop-color="#000" stop-opacity=".45"/><stop offset="1" stop-color="#000" stop-opacity="0"/></radialGradient></defs>
<ellipse cx="256" cy="232" rx="210" ry="14" fill="url(#sshotgunlaserfade)"/>
<g clip-path="url(#cshotgunlaserfade)"><rect width="512" height="256" fill="url(#pshotgunlaserfade)"/><rect width="512" height="256" fill="url(#hshotgunlaserfade)"/></g>
<polygon points="16,116 110,104 116,104 116,146 80,166 22,166 12,150" fill="none" stroke="#05060a" stroke-opacity=".65" stroke-width="2.5" stroke-linejoin="round"/><polygon points="112,100 260,100 266,140 112,140" fill="none" stroke="#05060a" stroke-opacity=".65" stroke-width="2.5" stroke-linejoin="round"/><polygon points="260,104 488,104 488,120 260,120" fill="none" stroke="#05060a" stroke-opacity=".65" stroke-width="2.5" stroke-linejoin="round"/><rect x="300" y="122" width="140" height="20" rx="6" fill="none" stroke="#05060a" stroke-opacity=".65" stroke-width="2.5" stroke-linejoin="round"/><polygon points="140,138 172,138 162,188 136,186" fill="none" stroke="#05060a" stroke-opacity=".65" stroke-width="2.5" stroke-linejoin="round"/>
</svg>