<svg xmlns="http://www.w3.org/2000/svg" viewBox="0 0 512 256" width="512" height="256">
<defs><clipPath id="csmgforestdrill"><path d="M26 106 L110 106 L110 118 L44 118 L44 142 L26 142 Z" fill-rule="evenodd" clip-rule="evenodd" /><polygon points="106,96 334,96 342,106 342,134 106,134" /><polygon points="132,87 322,87 322,96 132,96" /><path d="M190 132 L222 132 L232 214 Q214 220 198 214 Z" fill-rule="evenodd" clip-rule="evenodd" /><path d="M290 132 L308 132 L304 172 L288 172 Z" fill-rule="evenodd" clip-rule="evenodd" /><polygon points="342,108 404,108 404,121 342,121" /></clipPath>
<linearGradient id="hsmgforestdrill" x1="0" y1="0" x2="0" y2="1"><stop offset="0" stop-color="#fff" stop-opacity=".38"/><stop offset=".35" stop-color="#fff" stop-opacity=".06"/><stop offset=".7" stop-color="#000" stop-opacity="0"/><stop offset="1" stop-color="#000" stop-opacity=".35"/></linearGradient>
<radialGradient id="ssmgforestdrill" cx=".5" cy=".5" r=".5"><stop offset="0" stop-color="#000" stop-opacity=".45"/><stop offset="1" stop-color="#000" stop-opacity="0"/></radialGradient></defs>
<ellipse cx="256" cy="232" rx="210" ry="14" fill="url(#ssmgforestdrill)"/>
<g clip-path="url(#csmgforestdrill)"><rect width="512" height="256" fill="#33452a"/><ellipse cx="141" cy="177" rx="37" ry="20" transform="rotate(41 256 128)" fill="#5f7a4a" opacity=".9"/><ellipse cx="59" cy="181" rx="35" ry="14" transform="rotate(113 256 128)" fill="#33452a" opacity=".9"/><ellipse cx="253" cy="96" rx="36" ry="15" transform="rotate(169 256 128)" fill="#151c11" opacity=".9"/><ellipse cx="248" cy="67" rx="43" ry="9" transform="rotate(53 256 128)" fill="#5f7a4a" opacity=".9"/><ellipse cx="354" cy="236" rx="33" ry="9" transform="rotate(58 256 128)" fill="#33452a" opacity=".9"/><ellipse cx="348" cy="53" rx="26" ry="26" transform="rotate(30 256 128)" fill="#151c11" opacity=".9"/><ellipse cx="179" cy="193" rx="23" ry="16" transform="rotate(145 256 128)" fill="#5f7a4a" opacity=".9"/><ellipse cx="374" cy="17" rx="47" ry="13" transform="rotate(98 256 128)" fill="#33452a" opacity=".9"/><ellipse cx="36" cy="244" rx="26" ry="25" transform="rotate(55 256 128)" fill="#151c11" opacity=".9"/><ellipse cx="326" cy="93" rx="28" ry="26" transform="rotate(83 256 128)" fill="#5f7a4a" opacity=".9"/><ellipse cx="368" cy="13" rx="27" ry="21" transform="rotate(70 256 128)" fill="#33452a" opacity=".9"/><ellipse cx="213" cy="145" rx="25" ry="13" transform="rotate(148 256 128)" fill="#151c11" opacity=".9"/><ellipse cx="353" cy="202" rx="21" ry="27" transform="rotate(168 256 128)" fill="#5f7a4a" opacity=".9"/><ellipse cx="419" cy="144" rx="45" ry="22" transform="rotate(149 256 128)" fill="#33452a" opacity=".9"/><ellipse cx="228" cy="231" rx="28" ry="13" transform="rotate(147 256 128)" fill="#151c11" opacity=".9"/><ellipse cx="297" cy="53" rx="38" ry="27" transform="rotate(74 256 128)" fill="#5f7a4a" opacity=".9"/><ellipse cx="39" cy="152" rx="46" ry="20" transform="rotate(43 256 128)" fill="#33452a" opacity=".9"/><ellipse cx="229" cy="131" rx="47" ry="22" transform="rotate(87 256 128)" fill="#151c11" opacity=".9"/><ellipse cx="380" cy="244" rx="27" ry="8" transform="rotate(89 256 128)" fill="#5f7a4a" opacity=".9"/><ellipse cx="345" cy="28" rx="23" ry="22" transform="rotate(169 256 128)" fill="#33452a" opacity=".9"/><ellipse cx="484" cy="203" rx="25" ry="25" transform="rotate(29 256 128)" fill="#151c11" opacity=".9"/><ellipse cx="311" cy="27" rx="48" ry="28" transform="rotate(84 256 128)" fill="#5f7a4a" opacity=".9"/><ellipse cx="342" cy="165" rx="35" ry="28" transform="rotate(175 256 128)" fill="#33452a" opacity=".9"/><ellipse cx="475" cy="150" rx="43" ry="12" transform="rotate(128 256 128)" fill="#151c11" opacity=".9"/><ellipse cx="362" cy="29" rx="43" ry="13" transform="rotate(132 256 128)" fill="#5f7a4a" opacity=".9"/><ellipse cx="249" cy="254" rx="30" ry="20" transform="rotate(24 256 128)" fill="#33452a" opacity=".9"/><ellipse cx="117" cy="199" rx="41" ry="25" transform="rotate(79 256 128)" fill="#151c11" opacity=".9"/><ellipse cx="46" cy="106" rx="30" ry="17" transform="rotate(29 256 128)" fill="#5f7a4a" opacity=".9"/><ellipse cx="129" cy="119" rx="26" ry="27" transform="rotate(30 256 128)" fill="#33452a" opacity=".9"/><ellipse cx="373" cy="71" rx="15" ry="26" transform="rotate(57 256 128)" fill="#151c11" opacity=".9"/><ellipse cx="391" cy="22" rx="24" ry="26" transform="rotate(130 256 128)" fill="#5f7a4a" opacity=".9"/><ellipse cx="17" cy="212" rx="45" ry="8" transform="rotate(14 256 128)" fill="#33452a" opacity=".9"/><ellipse cx="214" cy="18" rx="34" ry="8" transform="rotate(111 256 128)" fill="#151c11" opacity=".9"/><ellipse cx="482" cy="45" rx="32" ry="15" transform="rotate(59 256 128)" fill="#5f7a4a" opacity=".9"/><ellipse cx="128" cy="29" rx="45" ry="15" transform="rotate(161 256 128)" fill="#33452a" opacity=".9"/><ellipse cx="8" cy="200" rx="16" ry="22" transform="rotate(157 256 128)" fill="#151c11" opacity=".9"/><ellipse cx="116" cy="69" rx="39" ry="21" transform="rotate(18 256 128)" fill="#5f7a4a" opacity=".9"/><ellipse cx="193" cy="17" rx="43" ry="15" transform="rotate(40 256 128)" fill="#33452a" opacity=".9"/><ellipse cx="186" cy="17" rx="17" ry="24" transform="rotate(64 256 128)" fill="#151c11" opacity=".9"/><ellipse cx="255" cy="128" rx="46" ry="26" transform="rotate(14 256 128)" fill="#5f7a4a" opacity=".9"/><ellipse cx="112" cy="250" rx="27" ry="13" transform="rotate(151 256 128)" fill="#33452a" opacity=".9"/><ellipse cx="170" cy="25" rx="18" ry="22" transform="rotate(28 256 128)" fill="#151c11" opacity=".9"/><ellipse cx="506" cy="232" rx="20" ry="12" transform="rotate(10 256 128)" fill="#5f7a4a" opacity=".9"/><ellipse cx="388" cy="125" rx="31" ry="20" transform="rotate(33 256 128)" fill="#33452a" opacity=".9"/><ellipse cx="246" cy="151" rx="26" ry="22" transform="rotate(93 256 128)" fill="#151c11" opacity=".9"/><ellipse cx="507" cy="230" rx="29" ry="18" transform="rotate(11 256 128)" fill="#5f7a4a" opacity=".9"/><rect width="512" height="256" fill="url(#hsmgforestdrill)"/></g>
<path d="M26 106 L110 106 L110 118 L44 118 L44 142 L26 142 Z" fill-rule="evenodd" clip-rule="evenodd" fill="none" stroke="#05060a" stroke-opacity=".65" stroke-width="2.5" stroke-linejoin="round"/><polygon points="106,96 334,96 342,106 342,134 106,134" fill="none" stroke="#05060a" stroke-opacity=".65" stroke-width="2.5" stroke-linejoin="round"/><polygon points="132,87 322,87 322,96 132,96" fill="none" stroke="#05060a" stroke-opacity=".65" stroke-width="2.5" stroke-linejoin="round"/><path d="M190 132 L222 132 L232 214 Q214 220 198 214 Z" fill-rule="evenodd" clip-rule="evenodd" fill="none" stroke="#05060a" stroke-opacity=".65" stroke-width="2.5" stroke-linejoin="round"/><path d="M290 132 L308 132 L304 172 L288 172 Z" fill-rule="evenodd" clip-rule="evenodd" fill="none" stroke="#05060a" stroke-opacity=".65" stroke-width="2.5" stroke-linejoin="round"/><polygon points="342,108 404,108 404,121 342,121" fill="none" stroke="#05060a" stroke-opacity=".65" stroke-width="2.5" stroke-linejoin="round"/>
</svg>