<svg xmlns="http://www.w3.org/2000/svg" viewBox="0 0 512 256" width="512" height="256">
<defs><pattern id="psmgroyalmesh" width="28" height="48" patternUnits="userSpaceOnUse"><rect width="28" height="48" fill="#0b0e1f"/><path d="M14 0 L28 8 L28 24 L14 32 L0 24 L0 8 Z" fill="none" stroke="#6f8cff" stroke-width="1.6" opacity=".85"/><path d="M14 0 L28 8 L28 24 L14 32 L0 24 L0 8 Z" transform="translate(14 24)" fill="#2a356f" fill-opacity=".35" stroke="#6f8cff" stroke-width="1.2" opacity=".7"/><path d="M14 0 L28 8 L28 24 L14 32 L0 24 L0 8 Z" transform="translate(-14 24)" fill="#2a356f" fill-opacity=".35" stroke="#6f8cff" stroke-width="1.2" opacity=".7"/></pattern><clipPath id="csmgroyalmesh"><path d="M36 124 Q40 100 76 94 L380 90 Q424 96 432 124 Q430 146 390 152 L304 152 L284 194 Q266 202 248 196 L240 152 L126 152 L104 184 Q84 192 66 184 L64 154 Q38 148 36 124 Z" fill-rule="evenodd" clip-rule="evenodd" /><rect x="146" y="72" width="236" height="18" rx="6" /><polygon points="432,112 474,112 474,124 432,124" /><path d="M96 124 Q100 108 120 108 Q140 108 140 124 Z" fill-rule="evenodd" clip-rule="evenodd" /></clipPath>
<linearGradient id="hsmgroyalmesh" x1="0" y1="0" x2="0" y2="1"><stop offset="0" stop-color="#fff" stop-opacity=".38"/><stop offset=".35" stop-color="#fff" stop-opacity=".06"/><stop offset=".7" stop-color="#000" stop-opacity="0"/><stop offset="1" stop-color="#000" stop-opacity=".35"/></linearGradient>
<radialGradient id="ssmgroyalmesh" cx=".5" cy=".5" r=".5"><stop offset="0" stop-color="#000" stop-opacity=".45"/><stop offset="1" stop-color="#000" stop-opacity="0"/></radialGradient></defs>
<ellipse cx="256" cy="232" rx="210" ry="14" fill="url(#ssmgroyalmesh)"/>
<g clip-path="url(#csmgroyalmesh)"><rect width="512" height="256" fill="url(#psmgroyalmesh)"/><rect width="512" height="256" fill="url(#hsmgroyalmesh)"/></g>
<path d="M36 124 Q40 100 76 94 L380 90 Q424 96 432 124 Q430 146 390 152 L304 152 L284 194 Q266 202 248 196 L240 152 L126 152 L104 184 Q84 192 66 184 L64 154 Q38 148 36 124 Z" fill-rule="evenodd" clip-rule="evenodd" fill="none" stroke="#05060a" stroke-opacity=".65" stroke-width="2.5" stroke-linejoin="round"/><rect x="146" y="72" width="236" height="18" rx="6" fill="none" stroke="#05060a" stroke-opacity=".65" stroke-width="2.5" stroke-linejoin="round"/><polygon points="432,112 474,112 474,124 432,124" fill="none" stroke="#05060a" stroke-opacity=".65" stroke-width="2.5" stroke-linejoin="round"/><path d="M96 124 Q100 108 120 108 Q140 108 140 124 Z" fill-rule="evenodd" clip-rule="evenodd" fill="none" stroke="#05060a" stroke-opacity=".65" stroke-width="2.5" stroke-linejoin="round"/>
</svg>