<svg xmlns="http://www.w3.org/2000/svg" viewBox="0 0 512 256" width="512" height="256">
<defs><linearGradient id="psmggraphitewash" x1="0" y1="0" x2="1" y2="0.3"><stop offset="0" stop-color="#1f2329"/><stop offset=".45" stop-color="#454b54"/><stop offset="1" stop-color="#6f7680"/></linearGradient><clipPath id="csmggraphitewash"><polygon points="40,110 110,104 110,138 60,150 40,146" /><polygon points="106,92 330,92 340,104 340,138 106,138" /><polygon points="336,108 430,108 430,122 336,122" /><polygon points="250,136 278,136 282,214 254,214" /><polygon points="150,136 182,136 174,196 146,194" /><polygon points="180,78 280,78 284,92 176,92" /></clipPath>
<linearGradient id="hsmggraphitewash" x1="0" y1="0" x2="0" y2="1"><stop offset="0" stop-color="#fff" stop-opacity=".38"/><stop offset=".35" stop-color="#fff" stop-opacity=".06"/><stop offset=".7" stop-color="#000" stop-opacity="0"/><stop offset="1" stop-color="#000" stop-opacity=".35"/></linearGradient>
<radialGradient id="ssmggraphitewash" cx=".5" cy=".5" r=".5"><stop offset="0" stop-color="#000" stop-opacity=".45"/><stop offset="1" stop-color="#000" stop-opacity="0"/></radialGradient></defs>
<ellipse cx="256" cy="232" rx="210" ry="14" fill="url(#ssmggraphitewash)"/>
<g clip-path="url(#csmggraphitewash)"><rect width="512" height="256" fill="url(#psmggraphitewash)"/><rect width="512" height="256" fill="url(#hsmggraphitewash)"/></g>
<polygon points="40,110 110,104 110,138 60,150 40,146" fill="none" stroke="#05060a" stroke-opacity=".65" stroke-width="2.5" stroke-linejoin="round"/><polygon points="106,92 330,92 340,104 340,138 106,138" fill="none" stroke="#05060a" stroke-opacity=".65" stroke-width="2.5" stroke-linejoin="round"/><polygon points="336,108 430,108 430,122 336,122" fill="none" stroke="#05060a" stroke-opacity=".65" stroke-width="2.5" stroke-linejoin="round"/><polygon points="250,136 278,136 282,214 254,214" fill="none" stroke="#05060a" stroke-opacity=".65" stroke-width="2.5" stroke-linejoin="round"/><polygon points="150,136 182,136 174,196 146,194" fill="none" stroke="#05060a" stroke-opacity=".65" stroke-width="2.5" stroke-linejoin="round"/><polygon points="180,78 280,78 284,92 176,92" fill="none" stroke="#05060a" stroke-opacity=".65" stroke-width="2.5" stroke-linejoin="round"/>
</svg>