<svg xmlns="http://www.w3.org/2000/svg" viewBox="0 0 512 256" width="512" height="256">
<defs><clipPath id="csniperneontide"><polygon points="10,120 110,108 120,108 120,150 90,164 24,170 10,156" /><polygon points="116,104 300,104 306,140 116,140" /><polygon points="300,114 500,112 500,122 300,126" /><rect x="144" y="68" width="152" height="24" rx="12" /><polygon points="180,88 192,88 192,104 180,104" /><polygon points="250,88 262,88 262,104 250,104" /><polygon points="220,138 248,138 252,176 222,176" /><polygon points="130,138 160,138 152,190 126,188" /><polygon points="420,124 428,124 444,180 436,182" /></clipPath>
<linearGradient id="hsniperneontide" x1="0" y1="0" x2="0" y2="1"><stop offset="0" stop-color="#fff" stop-opacity=".38"/><stop offset=".35" stop-color="#fff" stop-opacity=".06"/><stop offset=".7" stop-color="#000" stop-opacity="0"/><stop offset="1" stop-color="#000" stop-opacity=".35"/></linearGradient>
<radialGradient id="ssniperneontide" cx=".5" cy=".5" r=".5"><stop offset="0" stop-color="#000" stop-opacity=".45"/><stop offset="1" stop-color="#000" stop-opacity="0"/></radialGradient></defs>
<ellipse cx="256" cy="232" rx="210" ry="14" fill="url(#ssniperneontide)"/>
<g clip-path="url(#csniperneontide)"><rect width="512" height="256" fill="#07141c"/><path d="M0 10 C 64 -4, 128 24, 192 10 S 320 -4, 384 10 S 512 24, 540 10" fill="none" stroke="#1c6f8f" stroke-width="7" opacity=".85"/><path d="M0 32 C 64 18, 128 46, 192 32 S 320 18, 384 32 S 512 46, 540 32" fill="none" stroke="#3cf2d0" stroke-width="4" opacity=".85"/><path d="M0 54 C 64 40, 128 68, 192 54 S 320 40, 384 54 S 512 68, 540 54" fill="none" stroke="#1c6f8f" stroke-width="7" opacity=".85"/><path d="M0 76 C 64 62, 128 90, 192 76 S 320 62, 384 76 S 512 90, 540 76" fill="none" stroke="#3cf2d0" stroke-width="4" opacity=".85"/><path d="M0 98 C 64 84, 128 112, 192 98 S 320 84, 384 98 S 512 112, 540 98" fill="none" stroke="#1c6f8f" stroke-width="7" opacity=".85"/><path d="M0 120 C 64 106, 128 134, 192 120 S 320 106, 384 120 S 512 134, 540 120" fill="none" stroke="#3cf2d0" stroke-width="4" opacity=".85"/><path d="M0 142 C 64 128, 128 156, 192 142 S 320 128, 384 142 S 512 156, 540 142" fill="none" stroke="#1c6f8f" stroke-width="7" opacity=".85"/><path d="M0 164 C 64 150, 128 178, 192 164 S 320 150, 384 164 S 512 178, 540 164" fill="none" stroke="#3cf2d0" stroke-width="4" opacity=".85"/><path d="M0 186 C 64 172, 128 200, 192 186 S 320 172, 384 186 S 512 200, 540 186" fill="none" stroke="#1c6f8f" stroke-width="7" opacity=".85"/><path d="M0 208 C 64 194, 128 222, 192 208 S 320 194, 384 208 S 512 222, 540 208" fill="none" stroke="#3cf2d0" stroke-width="4" opacity=".85"/><path d="M0 230 C 64 216, 128 244, 192 230 S 320 216, 384 230 S 512 244, 540 230" fill="none" stroke="#1c6f8f" stroke-width="7" opacity=".85"/><path d="M0 252 C 64 238, 128 266, 192 252 S 320 238, 384 252 S 512 266, 540 252" fill="none" stroke="#3cf2d0" stroke-width="4" opacity=".85"/><rect width="512" height="256" fill="url(#hsniperneontide)"/></g>
<polygon points="10,120 110,108 120,108 120,150 90,164 24,170 10,156" fill="none" stroke="#05060a" stroke-opacity=".65" stroke-width="2.5" stroke-linejoin="round"/><polygon points="116,104 300,104 306,140 116,140" fill="none" stroke="#05060a" stroke-opacity=".65" stroke-width="2.5" stroke-linejoin="round"/><polygon points="300,114 500,112 500,122 300,126" fill="none" stroke="#05060a" stroke-opacity=".65" stroke-width="2.5" stroke-linejoin="round"/><rect x="144" y="68" width="152" height="24" rx="12" fill="none" stroke="#05060a" stroke-opacity=".65" stroke-width="2.5" stroke-linejoin="round"/><polygon points="180,88 192,88 192,104 180,104" fill="none" stroke="#05060a" stroke-opacity=".65" stroke-width="2.5" stroke-linejoin="round"/><polygon points="250,88 262,88 262,104 250,104" fill="none" stroke="#05060a" stroke-opacity=".65" stroke-width="2.5" stroke-linejoin="round"/><polygon points="220,138 248,138 252,176 222,176" fill="none" stroke="#05060a" stroke-opacity=".65" stroke-width="2.5" stroke-linejoin="round"/><polygon points="130,138 160,138 152,190 126,188" fill="none" stroke="#05060a" stroke-opacity=".65" stroke-width="2.5" stroke-linejoin="round"/><polygon points="420,124 428,124 444,180 436,182" fill="none" stroke="#05060a" stroke-opacity=".65" stroke-width="2.5" stroke-linejoin="round"/>
</svg>